<?xml version="1.0" encoding="utf-8"?>
<!-- Generator: Adobe Illustrator 25.1.0, SVG Export Plug-In . SVG Version: 6.00 Build 0)  -->
<svg version="1.1" id="Assets" xmlns="http://www.w3.org/2000/svg" xmlns:xlink="http://www.w3.org/1999/xlink" x="0px" y="0px"
	 width="65px" height="44px" viewBox="0 0 65 44" style="enable-background:new 0 0 65 44;" xml:space="preserve">
<style type="text/css">
	.st0{fill:#FFFFFF;}
	.st1{fill:none;}
</style>
<g id="tr_x40_globalnav_x5F_links_x5F_accessories_x5F_image_x5F_large">
	<rect id="Bounding_Box" class="st1" width="65" height="44"/>
	<path id="Vector_1_" class="st0" d="M5.7,23.6H2.3L1.4,26H0.3l3.1-8.5h1L7.6,26H6.5L5.7,23.6z M2.6,22.7h2.7L4,18.9H3.9L2.6,22.7z
		 M12.7,19.7H14l-2.7,2.7l2.9,3.6h-1.3l-2.4-3l-0.6,0.6V26h-1v-8.8h1v5.3H10L12.7,19.7z M17.2,19.6c1.3,0,2.2,0.7,2.4,1.7h-1
		c-0.1-0.5-0.6-0.8-1.4-0.8c-0.8,0-1.3,0.4-1.3,0.9c0,0.4,0.4,0.7,1.1,0.9l1,0.2c1.2,0.3,1.8,0.8,1.8,1.7c0,1.1-1.1,1.9-2.5,1.9
		c-1.4,0-2.4-0.7-2.5-1.7h1c0.2,0.5,0.7,0.9,1.5,0.9c0.8,0,1.5-0.4,1.5-1c0-0.4-0.3-0.7-1-0.9l-1.1-0.3c-1.2-0.3-1.7-0.8-1.7-1.7
		C14.9,20.4,15.9,19.6,17.2,19.6z M26.4,24.4c-0.3,1.1-1.3,1.7-2.7,1.7c-1.8,0-2.8-1.3-2.8-3.3c0-2,1.1-3.3,2.8-3.3
		c1.7,0,2.7,1.2,2.7,3.2v0.4h-4.5v0c0.1,1.2,0.8,2,1.8,2c0.8,0,1.4-0.3,1.6-0.9H26.4z M21.9,22.3h3.5c0-1.1-0.7-1.9-1.7-1.9
		C22.7,20.5,22,21.2,21.9,22.3z M30.1,19.6c1.3,0,2.2,0.7,2.4,1.7h-1c-0.1-0.5-0.6-0.8-1.4-0.8c-0.8,0-1.3,0.4-1.3,0.9
		c0,0.4,0.4,0.7,1.1,0.9l1,0.2c1.2,0.3,1.8,0.8,1.8,1.7c0,1.1-1.1,1.9-2.5,1.9c-1.4,0-2.4-0.7-2.5-1.7h1c0.2,0.5,0.7,0.9,1.5,0.9
		c0.8,0,1.5-0.4,1.5-1c0-0.4-0.3-0.7-1-0.9l-1.1-0.3c-1.2-0.3-1.7-0.8-1.7-1.7C27.8,20.4,28.8,19.6,30.1,19.6z M39.2,26h-1v-1h-0.1
		c-0.3,0.7-1,1.1-2,1.1c-1.4,0-2.2-0.8-2.2-2.3v-4.1h1v3.8c0,1.1,0.4,1.7,1.4,1.7c1.1,0,1.7-0.7,1.7-1.8v-3.7h1V26z M40.6,24.2
		c0-1.1,0.8-1.8,2.3-1.9l1.8-0.1v-0.6c0-0.8-0.5-1.2-1.4-1.2c-0.8,0-1.3,0.3-1.4,0.8h-1c0.1-1,1.1-1.7,2.5-1.7
		c1.5,0,2.4,0.8,2.4,2.1V26h-1v-0.9h-0.1c-0.4,0.7-1.1,1-1.9,1C41.5,26.1,40.6,25.4,40.6,24.2z M44.7,23.6v-0.6L43,23.2
		c-1,0.1-1.4,0.4-1.4,1c0,0.6,0.5,1,1.3,1C43.9,25.2,44.7,24.5,44.7,23.6z M47.4,19.7h1v0.9h0.1c0.2-0.6,0.9-1,1.8-1
		c0.2,0,0.4,0,0.5,0v1c-0.1,0-0.4-0.1-0.6-0.1c-1,0-1.7,0.6-1.7,1.5V26h-1V19.7z M52,17.2h1V26h-1V17.2z M54.4,24.2
		c0-1.1,0.8-1.8,2.3-1.9l1.8-0.1v-0.6c0-0.8-0.5-1.2-1.4-1.2c-0.8,0-1.3,0.3-1.4,0.8h-1c0.1-1,1.1-1.7,2.5-1.7
		c1.5,0,2.4,0.8,2.4,2.1V26h-1v-0.9h-0.1c-0.4,0.7-1.1,1-1.9,1C55.3,26.1,54.4,25.4,54.4,24.2z M58.6,23.6v-0.6l-1.7,0.1
		c-1,0.1-1.4,0.4-1.4,1c0,0.6,0.5,1,1.3,1C57.8,25.2,58.6,24.5,58.6,23.6z M61.3,19.7h1v0.9h0.1c0.2-0.6,0.9-1,1.8-1
		c0.2,0,0.4,0,0.5,0v1c-0.1,0-0.4-0.1-0.6-0.1c-1,0-1.7,0.6-1.7,1.5V26h-1V19.7z"/>
</g>
<g id="Notes">
</g>
</svg>
