<?xml version="1.0" encoding="utf-8"?>
<!-- Generator: Adobe Illustrator 25.1.0, SVG Export Plug-In . SVG Version: 6.00 Build 0)  -->
<svg version="1.1" id="Assets" xmlns="http://www.w3.org/2000/svg" xmlns:xlink="http://www.w3.org/1999/xlink" x="0px" y="0px"
	 width="39px" height="44px" viewBox="0 0 39 44" style="enable-background:new 0 0 39 44;" xml:space="preserve">
<style type="text/css">
	.st0{fill:#FFFFFF;}
	.st1{fill:none;}
</style>
<g id="tr_x40_globalnav_x5F_links_x5F_support_x5F_image_x5F_large_1_">
	<path class="st0" d="M4,17.5c2.5,0,4,1.6,4,4.2C8,24.4,6.5,26,4,26H1.1v-8.5H4z M2.1,25.1h1.8c1.9,0,3-1.2,3-3.3
		c0-2.1-1.1-3.3-3-3.3H2.1V25.1z M14.7,24.4c-0.3,1.1-1.3,1.7-2.7,1.7c-1.8,0-2.8-1.3-2.8-3.3c0-2,1.1-3.3,2.8-3.3
		c1.7,0,2.7,1.2,2.7,3.2v0.4h-4.5v0c0.1,1.2,0.8,2,1.8,2c0.8,0,1.4-0.3,1.6-0.9H14.7z M10.3,22.3h3.5c0-1.1-0.7-1.9-1.7-1.9
		C11.1,20.5,10.4,21.2,10.3,22.3z M18.5,19.6c1.3,0,2.2,0.7,2.4,1.7h-1c-0.1-0.5-0.6-0.8-1.4-0.8c-0.8,0-1.3,0.4-1.3,0.9
		c0,0.4,0.4,0.7,1.1,0.9l1,0.2c1.2,0.3,1.8,0.8,1.8,1.7c0,1.1-1.1,1.9-2.5,1.9c-1.4,0-2.4-0.7-2.5-1.7h1c0.2,0.5,0.7,0.9,1.5,0.9
		c0.8,0,1.5-0.4,1.5-1c0-0.4-0.3-0.7-1-0.9l-1.1-0.3c-1.2-0.3-1.7-0.8-1.7-1.7C16.1,20.4,17.2,19.6,18.5,19.6z M23.8,18v1.6h1.4v0.8
		h-1.4v3.6c0,0.7,0.3,1.1,0.9,1.1c0.2,0,0.3,0,0.5,0V26C25,26,24.8,26,24.6,26c-1.3,0-1.8-0.5-1.8-1.7v-3.8h-1v-0.8h1V18H23.8z
		 M31.7,24.4c-0.3,1.1-1.3,1.7-2.7,1.7c-1.8,0-2.8-1.3-2.8-3.3c0-2,1.1-3.3,2.8-3.3c1.7,0,2.7,1.2,2.7,3.2v0.4h-4.5v0
		c0.1,1.2,0.8,2,1.8,2c0.8,0,1.4-0.3,1.6-0.9H31.7z M27.3,22.3h3.5c0-1.1-0.7-1.9-1.7-1.9C28,20.5,27.3,21.2,27.3,22.3z M37.2,19.7
		h1.2l-2.7,2.7l2.9,3.6h-1.3l-2.4-3l-0.6,0.6V26h-1v-8.8h1v5.3h0.1L37.2,19.7z"/>
	<rect id="Bounding_Box_1_" class="st1" width="39" height="44"/>
</g>
<g id="Notes">
</g>
</svg>
