<?xml version="1.0" encoding="utf-8"?>
<!-- Generator: Adobe Illustrator 25.1.0, SVG Export Plug-In . SVG Version: 6.00 Build 0)  -->
<svg version="1.1" id="Assets" xmlns="http://www.w3.org/2000/svg" xmlns:xlink="http://www.w3.org/1999/xlink" x="0px" y="0px"
	 width="98px" height="44px" viewBox="0 0 98 44" style="enable-background:new 0 0 98 44;" xml:space="preserve">
<style type="text/css">
	.st0{fill:#FFFFFF;}
	.st1{fill:none;}
</style>
<g id="tr_x40_globalnav_x5F_links_x5F_onlyonapple_x5F_image_x5F_large_1_">
	<rect id="Bounding_Box_2_" class="st1" width="98" height="44"/>
	<path class="st0" d="M4.4,26v-3.6l-3-4.8h1.2l2.3,3.8H5l2.3-3.8h1.2l-3,4.8V26H4.4z M8.4,24.2c0-1.1,0.8-1.8,2.3-1.9l1.8-0.1v-0.6
		c0-0.8-0.5-1.2-1.4-1.2c-0.8,0-1.3,0.3-1.4,0.8h-1c0.1-1,1.1-1.7,2.5-1.7c1.5,0,2.4,0.8,2.4,2.1V26h-1v-0.9h-0.1
		c-0.4,0.7-1.1,1-1.9,1C9.3,26.1,8.4,25.4,8.4,24.2z M12.5,23.6v-0.6l-1.7,0.1c-1,0.1-1.4,0.4-1.4,1c0,0.6,0.5,1,1.3,1
		C11.7,25.2,12.5,24.5,12.5,23.6z M15.3,17.2h1V26h-1V17.2z M18.2,19.7h1v1h0.1c0.3-0.7,0.9-1.1,1.9-1.1c1.4,0,2.2,0.8,2.2,2.3V26
		h-1v-3.8c0-1.1-0.5-1.7-1.5-1.7s-1.7,0.7-1.7,1.8V26h-1V19.7z M25.1,19.7h1V26h-1V19.7z M27.7,25.3l3.6-4.6v-0.1h-3.6v-0.8h4.8v0.8
		L29,25.1v0.1h3.6V26h-4.9V25.3z M38.3,21.6c-0.2-0.6-0.7-1.1-1.6-1.1c-1.1,0-1.9,0.9-1.9,2.3c0,1.5,0.7,2.4,1.9,2.4
		c0.8,0,1.4-0.4,1.6-1.1h1c-0.2,1.2-1.1,2-2.6,2c-1.8,0-2.9-1.3-2.9-3.3c0-2,1.1-3.2,2.9-3.2c1.5,0,2.5,0.9,2.6,2H38.3z M40.3,24.2
		c0-1.1,0.8-1.8,2.3-1.9l1.8-0.1v-0.6c0-0.8-0.5-1.2-1.4-1.2c-0.8,0-1.3,0.3-1.4,0.8h-1c0.1-1,1.1-1.7,2.5-1.7
		c1.5,0,2.4,0.8,2.4,2.1V26h-1v-0.9h-0.1c-0.4,0.7-1.1,1-1.9,1C41.2,26.1,40.3,25.4,40.3,24.2z M44.4,23.6v-0.6l-1.7,0.1
		c-1,0.1-1.4,0.4-1.4,1c0,0.6,0.5,1,1.3,1C43.6,25.2,44.4,24.5,44.4,23.6z M55.2,23.6h-3.4L51,26h-1.1l3.1-8.5h1l3.1,8.5H56
		L55.2,23.6z M52.1,22.7h2.7l-1.3-3.8h-0.1L52.1,22.7z M64.1,22.8c0,2-1,3.3-2.7,3.3c-0.9,0-1.6-0.4-2-1.1h-0.1v3.1h-1v-8.4h1v1.1
		h0.1c0.4-0.7,1.2-1.2,2-1.2C63.1,19.6,64.1,20.9,64.1,22.8z M63.1,22.8c0-1.5-0.7-2.4-1.8-2.4c-1.1,0-1.9,0.9-1.9,2.4
		c0,1.4,0.7,2.4,1.9,2.4C62.4,25.2,63.1,24.3,63.1,22.8z M71.3,22.8c0,2-1,3.3-2.7,3.3c-0.9,0-1.6-0.4-2-1.1h-0.1v3.1h-1v-8.4h1v1.1
		h0.1c0.4-0.7,1.2-1.2,2-1.2C70.3,19.6,71.3,20.9,71.3,22.8z M70.3,22.8c0-1.5-0.7-2.4-1.8-2.4c-1.1,0-1.9,0.9-1.9,2.4
		c0,1.4,0.7,2.4,1.9,2.4C69.6,25.2,70.3,24.3,70.3,22.8z M72.8,17.2h1V26h-1V17.2z M80.9,24.4c-0.3,1.1-1.3,1.7-2.7,1.7
		c-1.8,0-2.8-1.3-2.8-3.3c0-2,1.1-3.3,2.8-3.3c1.7,0,2.7,1.2,2.7,3.2v0.4h-4.5v0c0.1,1.2,0.8,2,1.8,2c0.8,0,1.4-0.3,1.6-0.9H80.9z
		 M76.4,22.3h3.5c0-1.1-0.7-1.9-1.7-1.9C77.2,20.5,76.5,21.2,76.4,22.3z M82.3,20.7l0.7-3.2h1.1L83,20.7H82.3z M84.7,22.8
		c0-2,1-3.3,2.7-3.3c0.9,0,1.6,0.4,2,1.1h0.1v-3.5h1V26h-1v-1h-0.1c-0.4,0.7-1.1,1.1-2,1.1C85.7,26.1,84.7,24.8,84.7,22.8z
		 M85.7,22.8c0,1.5,0.7,2.4,1.8,2.4c1.1,0,1.9-0.9,1.9-2.4c0-1.4-0.7-2.4-1.9-2.4C86.4,20.5,85.7,21.4,85.7,22.8z M91.9,24.2
		c0-1.1,0.8-1.8,2.3-1.9l1.8-0.1v-0.6c0-0.8-0.5-1.2-1.4-1.2c-0.8,0-1.3,0.3-1.4,0.8h-1c0.1-1,1.1-1.7,2.5-1.7
		c1.5,0,2.4,0.8,2.4,2.1V26h-1v-0.9H96c-0.4,0.7-1.1,1-1.9,1C92.8,26.1,91.9,25.4,91.9,24.2z M96,23.6v-0.6l-1.7,0.1
		c-1,0.1-1.4,0.4-1.4,1c0,0.6,0.5,1,1.3,1C95.2,25.2,96,24.5,96,23.6z"/>
</g>
<g id="Notes">
</g>
</svg>
