<?xml version="1.0" encoding="utf-8"?>
<!-- Generator: Adobe Illustrator 25.1.0, SVG Export Plug-In . SVG Version: 6.00 Build 0)  -->
<svg version="1.1" id="Assets" xmlns="http://www.w3.org/2000/svg" xmlns:xlink="http://www.w3.org/1999/xlink" x="0px" y="0px"
	 width="48px" height="44px" viewBox="0 0 48 44" style="enable-background:new 0 0 48 44;" xml:space="preserve">
<style type="text/css">
	.st0{fill:#FFFFFF;}
	.st1{fill:none;}
</style>
<g id="tr_x40_globalnav_x5F_links_x5F_tvhome_x5F_image_x5F_large">
	<rect id="Bounding_Box_6_" class="st1" width="48" height="44"/>
	<path id="Vector" class="st0" d="M3,26v-7.5H0.3v-0.9h6.5v0.9H4V26H3z M11,26l-3.1-8.5H9l2.5,7.1h0.1l2.5-7.1h1.1L12,26H11z M22,26
		h-1l-2.3-6.3h1.1l1.7,5.2h0.1l1.7-5.2h1.1L22,26z M30.5,24.4c-0.3,1.1-1.3,1.7-2.7,1.7c-1.8,0-2.8-1.3-2.8-3.3c0-2,1.1-3.3,2.8-3.3
		c1.7,0,2.7,1.2,2.7,3.2v0.4H26v0c0.1,1.2,0.8,2,1.8,2c0.8,0,1.4-0.3,1.6-0.9H30.5z M26,22.3h3.5c0-1.1-0.7-1.9-1.7-1.9
		C26.8,20.5,26.1,21.2,26,22.3z M40.2,26H35v-8.5h5.2v0.9h-4.2v2.7h4v0.9h-4v2.9h4.2V26z M44.7,26h-1l-2.3-6.3h1.1l1.7,5.2h0.1
		l1.7-5.2h1.1L44.7,26z"/>
</g>
<g id="Notes">
</g>
</svg>
